<?xml version="1.0" encoding="UTF-8"?>
<svg id="Layer_2" data-name="Layer 2" xmlns="http://www.w3.org/2000/svg" viewBox="0 0 217.02 89.79">
  <defs>
    <style>
      .cls-1 {
        fill: #fff;
      }
    </style>
  </defs>
  <g id="Final">
    <g>
      <path class="cls-1" d="M24.57,5.27c.11-2.46-.52-3.15-1.6-3.61v-.97h7.53c3.04,11.17,5.16,18.85,7.85,28.65L46.14.69h7.7v.97c-.92.4-1.66,1.03-1.6,3.38.29,9.63,1.15,20.28,2.2,30.2.25,2.34.69,3.04,1.6,3.44v.97h-8.94v-.97c.97-.4,1.7-1.09,1.6-3.44-.33-7.97-1.29-16.68-1.8-27.45l-8.88,31.86h-1.91c-3.61-12.72-6.19-21.72-9-31.52-.4,10.66-1.38,18.4-1.75,24.81-.22,3.95.8,5.27,2.24,5.67v1.03h-7.36v-1.03c1.2-.46,1.81-1.72,2.12-5.67.63-7.92,1.8-17.99,2.2-27.68Z"/>
      <path class="cls-1" d="M165.3,5.27c.11-2.46-.52-3.15-1.6-3.61v-.97h7.53c3.04,11.17,5.16,18.85,7.85,28.65l7.79-28.65h7.7v.97c-.92.4-1.66,1.03-1.6,3.38.29,9.63,1.15,20.28,2.2,30.2.25,2.34.69,3.04,1.6,3.44v.97h-8.94v-.97c.97-.4,1.7-1.09,1.6-3.44-.33-7.97-1.29-16.68-1.8-27.45l-8.88,31.86h-1.91c-3.61-12.72-6.19-21.72-9-31.52-.4,10.66-1.38,18.4-1.75,24.81-.22,3.95.8,5.27,2.24,5.67v1.03h-7.36v-1.03c1.2-.46,1.81-1.72,2.12-5.67.63-7.92,1.8-17.99,2.2-27.68Z"/>
      <path class="cls-1" d="M137.5,19.03c0-4.87.06-9.17-.06-13.92-.06-2.29-.69-3.04-1.6-3.44v-.97h8.88v.97c-.92.4-1.49,1.15-1.6,3.44-.23,4.93-.23,9.05-.23,13.92v9.74c0,6.25,1.57,8.64,5.64,8.64,3.72,0,5.62-2.62,5.62-9.21,0-2.86.06-5.73.06-8.6,0-4.3,0-8.6-.11-12.95-.11-3.21-.74-4.47-2.23-4.93V.69h7.25v1.03c-1.15.46-1.83,1.72-1.95,4.93-.11,4.36-.17,8.65-.17,12.95,0,2.87-.06,5.73-.06,8.6,0,8.48-2.98,12.15-9.17,12.15-6.48,0-10.26-3.44-10.26-11.58v-9.74Z"/>
      <path class="cls-1" d="M60.89,19.03c0-4.87.06-9.17-.06-13.92-.06-2.29-.69-3.04-1.6-3.44v-.97h8.88v.97c-.92.4-1.49,1.15-1.6,3.44-.23,4.93-.23,9.05-.23,13.92v9.74c0,6.25,1.57,8.64,5.64,8.64,3.72,0,5.62-2.62,5.62-9.21,0-2.86.06-5.73.06-8.6,0-4.3,0-8.6-.11-12.95-.11-3.21-.74-4.47-2.23-4.93V.69h7.25v1.03c-1.15.46-1.83,1.72-1.95,4.93-.11,4.36-.17,8.65-.17,12.95,0,2.87-.06,5.73-.06,8.6,0,8.48-2.98,12.15-9.17,12.15-6.48,0-10.26-3.44-10.26-11.58v-9.74Z"/>
      <path class="cls-1" d="M88.79,27.97c1.09,7.62,3.15,10.37,6.76,10.37,3.21,0,5.27-2.81,5.27-6.13,0-4.93-2.98-7.74-6.19-10.37-3.9-3.21-8.14-6.25-8.14-12.66,0-5.1,3.61-9.17,9.63-9.17,4.13,0,7.11,1.55,9.23,2.81l-2.46,10.72h-.92l-.23-2.64c-.57-6.7-2.69-8.88-5.62-8.88-2.69,0-4.41,2.01-4.41,5.44,0,4.7,3.44,7.11,6.93,9.86,3.67,2.87,7.39,6.19,7.39,12.89,0,6.25-4.47,10.14-10.49,10.14-3.78,0-6.82-1.38-9.23-3.38l1.15-11.86h.92s.4,2.87.4,2.87Z"/>
      <path class="cls-1" d="M129.25,30.83l1.6-3.95h.97l-1.38,12.78h-20.29v-.97c.92-.4,1.49-1.15,1.6-3.44.23-4.93.34-10.2.34-15.07s-.11-10.14-.34-15.07c-.11-2.29-.69-3.04-1.6-3.44v-.97h19.6l1.38,11.81h-.97l-2.23-4.36c-1.83-3.61-3.9-5.73-7.28-5.73-2.01,0-2.98,1.09-3.09,3.55-.23,3.78-.29,8.37-.29,12.84,5.96-.34,6.65-2.98,6.76-6.3h.92l1.78,13.07h-.97c-1.15-3.15-2.06-4.87-8.48-4.99,0,4.76.06,9.74.29,13.81.11,2.46,1.09,3.55,3.09,3.55,3.9,0,6.48-1.89,8.6-7.11Z"/>
    </g>
    <g>
      <path class="cls-1" d="M83.46,52.92c.11-2.46-.52-3.15-1.6-3.61v-.97h7.53c3.04,11.17,5.16,18.85,7.85,28.65l7.79-28.65h7.7v.97c-.92.4-1.66,1.03-1.6,3.38.29,9.63,1.15,20.28,2.2,30.2.25,2.34.69,3.04,1.6,3.44v.97h-8.94v-.97c.97-.4,1.7-1.09,1.6-3.44-.33-7.97-1.29-16.68-1.8-27.45l-8.88,31.86h-1.91c-3.61-12.72-6.19-21.72-9-31.52-.4,10.66-1.38,18.4-1.75,24.81-.22,3.95.8,5.27,2.24,5.67v1.03h-7.36v-1.03c1.2-.46,1.81-1.72,2.12-5.67.63-7.92,1.8-17.99,2.2-27.68Z"/>
      <path class="cls-1" d="M63.69,70.06c-.97.23-2.06.4-3.15.57.06,4.07.17,8.25.34,12.26.11,2.29.69,3.04,1.95,3.44v.97h-9.4v-.97c.92-.4,1.49-1.15,1.6-3.44.23-4.93.34-10.2.34-15.07,0-4.87-.11-10.14-.34-15.07-.12-2.29-.69-3.04-1.6-3.44v-.97h9.51c7.91,0,12.49,2.81,12.49,9.74,0,4.24-2.18,7.56-6.07,9.8.17,6.1,4.99,16.63,8.08,21.39l-.57.52c-5.12-2.48-7.34-4.29-13.18-19.73ZM60.54,68.63c5.79-1.38,9-6.07,9-11s-2.87-7.56-6.19-7.56c-1.72,0-2.41,1.09-2.52,3.55-.23,4.18-.29,9.34-.29,14.21v.8Z"/>
      <path class="cls-1" d="M137.06,78.48l1.6-3.95h.97l-1.38,12.78h-20.29v-.97c.92-.4,1.49-1.15,1.6-3.44.23-4.93.34-10.2.34-15.07,0-4.87-.11-10.14-.34-15.07-.12-2.29-.69-3.04-1.6-3.44v-.97h19.6l1.38,11.81h-.97l-2.23-4.36c-1.83-3.61-3.9-5.73-7.28-5.73-2.01,0-2.98,1.09-3.09,3.55-.23,3.78-.29,8.37-.29,12.84,5.96-.34,6.65-2.98,6.76-6.3h.92l1.78,13.07h-.98c-1.15-3.15-2.06-4.87-8.48-4.99,0,4.76.06,9.74.29,13.81.11,2.46,1.09,3.55,3.09,3.55,3.9,0,6.48-1.89,8.6-7.11Z"/>
      <path class="cls-1" d="M150.44,86.27v1.03h-7.31v-1.03c1.15-.46,1.83-1.72,1.95-4.93.23-8.48.34-19.2.17-28.54-.06-2.18-.74-3.09-1.83-3.5v-.97h7.02c3.61,8.37,8.14,18.51,12.03,27.33.06-8.08.06-15.59-.12-21.37-.11-3.21-.74-4.47-2.23-4.93v-1.03h7.22v1.03c-1.15.46-1.83,1.72-1.95,4.93-.23,8.48-.29,20.8-.17,33.01h-3.1c-4.81-11.06-10.2-23.04-14.04-31.46-.06,10.54-.06,18.57.11,25.5.11,3.21.74,4.47,2.23,4.93Z"/>
      <path class="cls-1" d="M184.76,67.82c0,4.87.11,10.14.34,15.07.11,2.29.69,3.04,1.6,3.44v.97h-9.05v-.97c.92-.4,1.49-1.15,1.6-3.44.23-4.93.34-10.2.34-15.07,0-4.87-.06-10.14-.29-15.07-.11-2.18-.75-2.69-1.66-2.69-1.32,0-2.81,1.2-4.47,5.27l-2.01,4.81h-.97l.69-11.81h22.58l.69,11.81h-.97l-2.01-4.81c-1.66-4.07-3.15-5.27-4.47-5.27-.92,0-1.55.52-1.66,2.69-.23,4.93-.29,10.2-.29,15.07Z"/>
      <path class="cls-1" d="M199.77,75.62c1.09,7.62,3.15,10.37,6.76,10.37,3.21,0,5.27-2.81,5.27-6.13,0-4.93-2.98-7.74-6.19-10.37-3.9-3.21-8.14-6.25-8.14-12.66,0-5.1,3.61-9.17,9.63-9.17,4.13,0,7.11,1.55,9.23,2.81l-2.46,10.72h-.92l-.23-2.64c-.57-6.7-2.69-8.88-5.62-8.88-2.69,0-4.41,2.01-4.41,5.44,0,4.7,3.44,7.11,6.93,9.86,3.67,2.87,7.39,6.19,7.39,12.89,0,6.25-4.47,10.14-10.49,10.14-3.78,0-6.82-1.38-9.23-3.38l1.15-11.86h.92l.4,2.87Z"/>
      <path class="cls-1" d="M21.45,79.77h0c-.02-2.5.03-5.63.13-8.67v-.03h0c.04-1.19.08-2.37.14-3.48h-9.74v.97c3.15.69,4.01,2.01,4.24,4.41.17,2.52.23,7.05.06,9.23-.29,2.58-1.49,3.78-3.72,3.78-3.9,0-6.53-4.53-6.53-18.17s3.21-18.17,6.76-18.17c2.58,0,4.07,2.01,4.58,8.37l.34,4.07h.92l2.87-11.17c-2.06-1.6-4.87-3.27-8.65-3.27-7.45,0-12.84,5.79-12.84,20.17s5.33,20.17,12.66,20.17c2.79,0,6-.53,8.78-1.45v-6.77Z"/>
      <path class="cls-1" d="M48.34,81.35c-2.29-8.65-5.73-22.35-8.19-33.01h-6.68l-.11,1.03c.75.29,1.2.57,1.55,1.26l-7.22,29.28c-1.03,4.07-2.18,5.67-3.32,6.36v1.03h7.2v-1.03c-1.38-.52-1.78-2.29-.92-6.13l1.29-5.71h9.17c.67,2.75,1.24,5.23,1.69,7.32.63,3.04-.17,4.07-1.2,4.58v.97h9.23v-.97c-1.03-.52-1.55-1.55-2.46-4.99ZM36.36,54.99c1.32,5.16,2.87,11.52,4.24,17.19h-8.14l3.9-17.19Z"/>
    </g>
  </g>
</svg>